HIERARCHY
ROOT Root
{
  OFFSET 0.0 0.0 0.0
  CHANNELS 6 Xposition Yposition Zposition Zrotation Yrotation Xrotation
  JOINT Hips
  {
    OFFSET 0.0 100.0 0.0
    CHANNELS 6 Xposition Yposition Zposition Zrotation Yrotation Xrotation
    JOINT Spine1
    {
      OFFSET 5.003913 -0.037094 -0.013727
      CHANNELS 3 Zrotation Yrotation Xrotation
      JOINT Spine2
      {
        OFFSET 7.125363 -1e-06 0.0
        CHANNELS 3 Zrotation Yrotation Xrotation
        JOINT Chest
        {
          OFFSET 7.594027 1e-06 0.0
          CHANNELS 3 Zrotation Yrotation Xrotation
          JOINT Neck1
          {
            OFFSET 26.313086 -0.460272 -0.181672
            CHANNELS 3 Zrotation Yrotation Xrotation
            JOINT Neck2
            {
              OFFSET 8.045911 0.0 0.0
              CHANNELS 3 Zrotation Yrotation Xrotation
              JOINT Head
              {
                OFFSET 6.432774 0.0 0.0
                CHANNELS 3 Zrotation Yrotation Xrotation
                JOINT HeadEnd
                {
                  OFFSET 16.169773 0.06451 0.00362
                  CHANNELS 3 Zrotation Yrotation Xrotation
                }
                JOINT Jaw
                {
                  OFFSET 0.108741 3.12938 0.002639
                  CHANNELS 3 Zrotation Yrotation Xrotation
                }
                JOINT LeftEye
                {
                  OFFSET 4.45173 8.166359 3.206392
                  CHANNELS 3 Zrotation Yrotation Xrotation
                }
                JOINT RightEye
                {
                  OFFSET 4.436895 8.135758 -3.222429
                  CHANNELS 3 Zrotation Yrotation Xrotation
                }
              }
            }
          }
          JOINT LeftShoulder
          {
            OFFSET 23.218927 5.195579 1.621656
            CHANNELS 3 Zrotation Yrotation Xrotation
            JOINT LeftArm
            {
              OFFSET 15.902118 2e-06 -2e-06
              CHANNELS 3 Zrotation Yrotation Xrotation
              JOINT LeftForeArm
              {
                OFFSET 28.739307 0.0 -1e-06
                CHANNELS 3 Zrotation Yrotation Xrotation
                JOINT LeftHand
                {
                  OFFSET 27.093981 -4e-06 0.0
                  CHANNELS 3 Zrotation Yrotation Xrotation
                  JOINT LeftHandThumb1
                  {
                    OFFSET 2.276781 3.380274 0.83384
                    CHANNELS 3 Zrotation Yrotation Xrotation
                    JOINT LeftHandThumb2
                    {
                      OFFSET 4.705309 -1e-06 -1e-06
                      CHANNELS 3 Zrotation Yrotation Xrotation
                      JOINT LeftHandThumb3
                      {
                        OFFSET 2.798515 0.0 3e-06
                        CHANNELS 3 Zrotation Yrotation Xrotation
                        JOINT LeftHandThumbEnd
                        {
                          OFFSET 3.180793 4e-06 -4e-06
                          CHANNELS 3 Zrotation Yrotation Xrotation
                        }
                      }
                    }
                  }
                  JOINT LeftHandIndex1
                  {
                    OFFSET 3.247786 2.352677 0.137192
                    CHANNELS 3 Zrotation Yrotation Xrotation
                    JOINT LeftHandIndex2
                    {
                      OFFSET 6.367095 1e-06 0.0
                      CHANNELS 3 Zrotation Yrotation Xrotation
                      JOINT LeftHandIndex3
                      {
                        OFFSET 3.662364 0.0 0.0
                        CHANNELS 3 Zrotation Yrotation Xrotation
                        JOINT LeftHandIndex4
                        {
                          OFFSET 2.329242 4e-06 -4e-06
                          CHANNELS 3 Zrotation Yrotation Xrotation
                          JOINT LeftHandIndexEnd
                          {
                            OFFSET 2.767823 1e-06 0.0
                            CHANNELS 3 Zrotation Yrotation Xrotation
                          }
                        }
                      }
                    }
                  }
                  JOINT LeftHandMiddle1
                  {
                    OFFSET 3.163612 0.945023 -0.406112
                    CHANNELS 3 Zrotation Yrotation Xrotation
                    JOINT LeftHandMiddle2
                    {
                      OFFSET 6.276789 3e-06 0.0
                      CHANNELS 3 Zrotation Yrotation Xrotation
                      JOINT LeftHandMiddle3
                      {
                        OFFSET 4.35652 -1e-06 4e-06
                        CHANNELS 3 Zrotation Yrotation Xrotation
                        JOINT LeftHandMiddle4
                        {
                          OFFSET 2.996877 0.0 8e-06
                          CHANNELS 3 Zrotation Yrotation Xrotation
                          JOINT LeftHandMiddleEnd
                          {
                            OFFSET 2.323256 3e-06 -4e-06
                            CHANNELS 3 Zrotation Yrotation Xrotation
                          }
                        }
                      }
                    }
                  }
                  JOINT LeftHandRing1
                  {
                    OFFSET 2.882606 -0.309162 0.107445
                    CHANNELS 3 Zrotation Yrotation Xrotation
                    JOINT LeftHandRing2
                    {
                      OFFSET 6.033198 0.0 4e-06
                      CHANNELS 3 Zrotation Yrotation Xrotation
                      JOINT LeftHandRing3
                      {
                        OFFSET 4.350578 3e-06 0.0
                        CHANNELS 3 Zrotation Yrotation Xrotation
                        JOINT LeftHandRing4
                        {
                          OFFSET 2.651321 2e-06 -7e-06
                          CHANNELS 3 Zrotation Yrotation Xrotation
                          JOINT LeftHandRingEnd
                          {
                            OFFSET 1.937663 1e-06 -4e-06
                            CHANNELS 3 Zrotation Yrotation Xrotation
                          }
                        }
                      }
                    }
                  }
                  JOINT LeftHandPinky1
                  {
                    OFFSET 2.865315 -1.525436 0.575687
                    CHANNELS 3 Zrotation Yrotation Xrotation
                    JOINT LeftHandPinky2
                    {
                      OFFSET 5.54936 1e-06 -8e-06
                      CHANNELS 3 Zrotation Yrotation Xrotation
                      JOINT LeftHandPinky3
                      {
                        OFFSET 3.070974 0.0 -4e-06
                        CHANNELS 3 Zrotation Yrotation Xrotation
                        JOINT LeftHandPinky4
                        {
                          OFFSET 1.549672 1e-06 0.0
                          CHANNELS 3 Zrotation Yrotation Xrotation
                          JOINT LeftHandPinkyEnd
                          {
                            OFFSET 1.952123 0.0 0.0
                            CHANNELS 3 Zrotation Yrotation Xrotation
                          }
                        }
                      }
                    }
                  }
                }
              }
            }
          }
          JOINT RightShoulder
          {
            OFFSET 23.161716 5.296122 -1.380114
            CHANNELS 3 Zrotation Yrotation Xrotation
            JOINT RightArm
            {
              OFFSET -16.027195 -2e-06 1.1e-05
              CHANNELS 3 Zrotation Yrotation Xrotation
              JOINT RightForeArm
              {
                OFFSET -28.736639 4e-06 2e-06
                CHANNELS 3 Zrotation Yrotation Xrotation
                JOINT RightHand
                {
                  OFFSET -27.133619 6e-06 0.0
                  CHANNELS 3 Zrotation Yrotation Xrotation
                  JOINT RightHandThumb1
                  {
                    OFFSET -2.274328 -3.351035 -0.83067
                    CHANNELS 3 Zrotation Yrotation Xrotation
                    JOINT RightHandThumb2
                    {
                      OFFSET -4.703594 -3e-06 2e-06
                      CHANNELS 3 Zrotation Yrotation Xrotation
                      JOINT RightHandThumb3
                      {
                        OFFSET -2.794935 -4e-06 -3e-06
                        CHANNELS 3 Zrotation Yrotation Xrotation
                        JOINT RightHandThumbEnd
                        {
                          OFFSET -3.183852 4e-06 1e-06
                          CHANNELS 3 Zrotation Yrotation Xrotation
                        }
                      }
                    }
                  }
                  JOINT RightHandIndex1
                  {
                    OFFSET -3.253496 -2.33755 -0.127667
                    CHANNELS 3 Zrotation Yrotation Xrotation
                    JOINT RightHandIndex2
                    {
                      OFFSET -6.344434 0.0 0.0
                      CHANNELS 3 Zrotation Yrotation Xrotation
                      JOINT RightHandIndex3
                      {
                        OFFSET -3.654871 0.0 -8e-06
                        CHANNELS 3 Zrotation Yrotation Xrotation
                        JOINT RightHandIndex4
                        {
                          OFFSET -2.327586 -1e-06 0.0
                          CHANNELS 3 Zrotation Yrotation Xrotation
                          JOINT RightHandIndexEnd
                          {
                            OFFSET -2.770001 3e-06 8e-06
                            CHANNELS 3 Zrotation Yrotation Xrotation
                          }
                        }
                      }
                    }
                  }
                  JOINT RightHandMiddle1
                  {
                    OFFSET -3.168223 -0.944764 0.411762
                    CHANNELS 3 Zrotation Yrotation Xrotation
                    JOINT RightHandMiddle2
                    {
                      OFFSET -6.266691 -1e-06 -4e-06
                      CHANNELS 3 Zrotation Yrotation Xrotation
                      JOINT RightHandMiddle3
                      {
                        OFFSET -4.348901 0.0 0.0
                        CHANNELS 3 Zrotation Yrotation Xrotation
                        JOINT RightHandMiddle4
                        {
                          OFFSET -3.00024 2e-06 -4e-06
                          CHANNELS 3 Zrotation Yrotation Xrotation
                          JOINT RightHandMiddleEnd
                          {
                            OFFSET -2.321477 -4e-06 -4e-06
                            CHANNELS 3 Zrotation Yrotation Xrotation
                          }
                        }
                      }
                    }
                  }
                  JOINT RightHandRing1
                  {
                    OFFSET -2.885654 0.293261 -0.119232
                    CHANNELS 3 Zrotation Yrotation Xrotation
                    JOINT RightHandRing2
                    {
                      OFFSET -6.032835 -1e-06 -4e-06
                      CHANNELS 3 Zrotation Yrotation Xrotation
                      JOINT RightHandRing3
                      {
                        OFFSET -4.33881 0.0 -4e-06
                        CHANNELS 3 Zrotation Yrotation Xrotation
                        JOINT RightHandRing4
                        {
                          OFFSET -2.654903 -4e-06 -4e-06
                          CHANNELS 3 Zrotation Yrotation Xrotation
                          JOINT RightHandRingEnd
                          {
                            OFFSET -1.935122 0.0 4e-06
                            CHANNELS 3 Zrotation Yrotation Xrotation
                          }
                        }
                      }
                    }
                  }
                  JOINT RightHandPinky1
                  {
                    OFFSET -2.866241 1.503904 -0.60527
                    CHANNELS 3 Zrotation Yrotation Xrotation
                    JOINT RightHandPinky2
                    {
                      OFFSET -5.553177 -2e-06 0.0
                      CHANNELS 3 Zrotation Yrotation Xrotation
                      JOINT RightHandPinky3
                      {
                        OFFSET -3.062664 -1e-06 -4e-06
                        CHANNELS 3 Zrotation Yrotation Xrotation
                        JOINT RightHandPinky4
                        {
                          OFFSET -1.546529 2e-06 4e-06
                          CHANNELS 3 Zrotation Yrotation Xrotation
                          JOINT RightHandPinkyEnd
                          {
                            OFFSET -1.952341 0.0 -4e-06
                            CHANNELS 3 Zrotation Yrotation Xrotation
                          }
                        }
                      }
                    }
                  }
                }
              }
            }
          }
        }
      }
    }
    JOINT LeftLeg
    {
      OFFSET -8.443107 2.567604 10.043214
      CHANNELS 3 Zrotation Yrotation Xrotation
      JOINT LeftShin
      {
        OFFSET 43.229198 1e-06 -1e-06
        CHANNELS 3 Zrotation Yrotation Xrotation
        JOINT LeftFoot
        {
          OFFSET 42.298611 1e-06 1e-06
          CHANNELS 3 Zrotation Yrotation Xrotation
          JOINT LeftToeBase
          {
            OFFSET 14.165858 1e-06 0.0
            CHANNELS 3 Zrotation Yrotation Xrotation
            JOINT LeftToeEnd
            {
              OFFSET 6.7141 -0.234461 0.0
              CHANNELS 3 Zrotation Yrotation Xrotation
            }
          }
        }
      }
    }
    JOINT RightLeg
    {
      OFFSET -8.303923 2.592729 -10.047278
      CHANNELS 3 Zrotation Yrotation Xrotation
      JOINT RightShin
      {
        OFFSET -43.369682 0.0 1e-06
        CHANNELS 3 Zrotation Yrotation Xrotation
        JOINT RightFoot
        {
          OFFSET -42.260784 4e-06 2e-06
          CHANNELS 3 Zrotation Yrotation Xrotation
          JOINT RightToeBase
          {
            OFFSET -14.222245 -2e-06 -1e-06
            CHANNELS 3 Zrotation Yrotation Xrotation
            JOINT RightToeEnd
            {
              OFFSET -6.660062 0.232574 -2e-06
              CHANNELS 3 Zrotation Yrotation Xrotation
            }
          }
        }
      }
    }
  }
}
MOTION
Frames: 4
Frame Time: 0.03333333333333333
0.0 0.0 0.0 0.0 -0.0 0.0 -58.884914 97.368828 260.811401 87.237633 2.709925 102.142258 -0.092084 1.130655 0.301472 -10.597815 -0.405181 0.350395 11.212788 1.413891 -1.92933 8.109576 2.661873 2.734019 -2.368881 -1.032362 -3.273142 -42.507244 -4.074282 -2.473704 3e-06 -0.0 0.0 0.128836 -0.019351 -0.04304 0.364401 -0.129316 -0.027562 0.427305 0.088183 -0.064437 -98.082771 -74.100327 107.702805 -2.191764 -29.631109 1.171765 76.863724 0.520543 -1.414993 6.104342 12.147814 -13.325177 17.636631 -26.322725 52.411201 -19.466663 -14.395597 29.410389 2e-06 -8.774822 -4e-06 15.490481 -17.86364 6.36717 -0.609775 -1.795654 -3.889328 -4.807091 -11.046809 -2.93785 6e-06 -20.976019 -1e-06 -5.019966 -25.03356 -4.031885 4e-06 -0.0 -1e-06 -10.634535 -5.686972 -3.565588 10.573277 -17.922951 -3.113901 2e-06 -13.821209 -0.0 -0.501776 -31.181505 -4.027016 -11.48738 -59.12336 7.464046 -13.982715 -7.150196 -2.875044 13.772729 -8.401491 -3.218241 0.347736 -34.211552 0.771651 -0.963028 -17.73337 2.621021 -0.0 -1e-06 0.0 -17.346422 -20.095217 -4.201784 21.757559 -1.638374 3.86643 2e-06 -6.338825 2e-06 -1.697587 -22.591745 -6.194007 -0.0 -5e-06 -3e-06 60.359524 -81.73217 130.427536 -0.285432 -24.999121 -6.975297 73.606392 -1.259254 0.3536 3.536825 47.80109 -16.430782 22.18211 -20.375893 49.933308 -16.701811 -16.74353 28.476524 -4e-06 -12.690601 2e-06 16.528482 -17.884102 2.218381 -0.10592 -1.513855 -4.275883 -5.039039 -5.612869 -2.953552 5e-06 -11.020524 -2e-06 -6.111294 -15.89533 -3.840472 -0.0 -0.0 1e-06 -10.283367 -5.680287 -4.341838 11.028296 -11.302406 -2.372636 -1.384268 -14.238579 -6.32012 -0.625438 -26.924191 -3.827599 -4.342196 -50.993359 -3.884455 -13.708522 -7.363474 -3.72094 18.14115 -14.05274 -3.242678 7e-06 -18.78727 -1e-06 -0.429712 -8.456043 2.555508 -0.0 0.0 -1e-06 -15.923532 -20.094481 -5.473583 30.419207 -7.190827 1.735921 3e-06 -8.162924 -0.0 -1.861901 -22.861464 -6.167943 0.0 -2e-06 -1e-06 179.477936 -14.072554 5.744262 58.272476 -0.839376 0.796812 -59.021282 -2.175091 -4.592891 -19.51038 1.909186 2.2418 -0.999999 -1e-06 0.0 -13.739223 0.870651 -19.212814 30.776922 0.208468 -0.290541 -83.347809 -13.033298 -1.720747 -6.761827 0.672049 1.652447 -1.000003 -0.0 -0.0 
0.0 0.0 0.0 0.0 -0.0 0.0 -59.948254 97.347885 262.420715 86.843025 2.824902 101.552773 0.403167 1.394837 0.461511 -10.413767 -0.360929 0.243803 11.268032 1.787084 -1.875306 7.844492 2.457323 2.551823 -2.340568 -0.976123 -3.217554 -44.355019 -4.292428 -1.762313 6e-06 -0.0 -0.0 0.134904 -0.012513 -0.035794 0.385062 -0.136978 -0.023458 0.43651 0.109676 -0.052536 -98.1045 -74.115685 107.93055 -3.83722 -30.442068 3.199768 76.165825 0.263371 -1.598623 6.165738 12.007979 -10.788939 17.636625 -26.322729 52.41119 -19.466663 -14.395598 29.410389 -1e-06 -8.774819 -3e-06 15.22852 -17.890024 6.509872 -0.609775 -1.795654 -3.889328 -4.807088 -11.046811 -2.93785 3e-06 -20.976011 1e-06 -5.019973 -25.033556 -4.03188 7e-06 -0.0 -1e-06 -10.634533 -5.686971 -3.565588 10.573275 -17.922949 -3.1139 3e-06 -13.821206 1e-06 -0.501777 -31.181498 -4.027019 -11.612396 -58.962284 7.551413 -13.982714 -7.150201 -2.875041 13.77273 -8.401492 -3.218242 0.347736 -34.211552 0.771655 -0.963028 -17.73337 2.621021 0.0 -0.0 0.0 -17.346418 -20.095221 -4.201781 21.757559 -1.638377 3.866426 2e-06 -6.338823 2e-06 -1.69759 -22.591743 -6.194007 1e-06 -4e-06 -1e-06 59.001293 -81.185432 131.993607 -0.716135 -24.227985 -5.183792 80.310646 -0.66674 0.093317 9.634536 49.34185 -10.185318 22.182114 -20.375895 49.933319 -16.701811 -16.743528 28.476532 -2e-06 -12.690601 -1e-06 17.059902 -17.802685 2.086508 -0.105917 -1.513852 -4.275878 -5.039042 -5.612873 -2.953559 3e-06 -11.020525 -2e-06 -6.111297 -15.895334 -3.840469 -0.0 -0.0 1e-06 -10.283371 -5.68029 -4.341839 11.028295 -11.302402 -2.372632 -1.384269 -14.238581 -6.32012 -0.625438 -26.924189 -3.8276 -4.355516 -51.206486 -3.805475 -13.708524 -7.363479 -3.720938 18.141148 -14.052737 -3.242675 6e-06 -18.78727 -2e-06 -0.429711 -8.456042 2.555503 -0.0 0.0 0.0 -15.923536 -20.094482 -5.473585 30.41921 -7.190824 1.735926 2e-06 -8.162925 -2e-06 -1.861904 -22.861467 -6.167943 -0.0 -2e-06 -0.0 175.021652 -13.654882 4.729517 66.368851 -0.766916 0.658178 -60.8102 -5.025697 -6.025759 -14.708953 1.821848 2.367799 -0.999999 -0.0 -0.0 -12.53529 2.608222 -18.639433 30.171476 0.171961 -0.288414 -84.386467 -13.460991 -0.96826 -6.76756 0.690755 1.646475 -1.000001 1e-06 -0.0 
0.0 0.0 0.0 0.0 -0.0 0.0 -60.889965 97.287033 263.99057 86.490417 2.877306 100.883751 0.757874 1.555748 0.567032 -10.280652 -0.333195 0.167408 11.38571 2.102103 -1.759756 7.825431 2.420387 2.328381 -2.294527 -0.876555 -3.037679 -46.104912 -4.515343 -1.076707 7e-06 -0.0 0.0 0.145188 -0.000464 -0.019357 0.415683 -0.145869 -0.012807 0.45472 0.143071 -0.028497 -98.275719 -73.961288 108.476219 -5.404192 -31.290115 5.241976 75.820862 -0.064782 -1.622144 6.331096 11.80277 -8.743429 17.636641 -26.322744 52.411209 -19.466665 -14.395604 29.410398 -1e-06 -8.774822 -4e-06 15.05039 -17.89023 6.605524 -0.609775 -1.795654 -3.889326 -4.807087 -11.046813 -2.937851 4e-06 -20.976021 1e-06 -5.019972 -25.03356 -4.031881 6e-06 1e-06 0.0 -10.634536 -5.686971 -3.565587 10.573279 -17.922955 -3.1139 0.0 -13.821213 2e-06 -0.501777 -31.181511 -4.027013 -11.688724 -58.825081 7.601992 -13.982714 -7.150198 -2.875042 13.772733 -8.401497 -3.218242 0.347735 -34.211559 0.771655 -0.963027 -17.733372 2.621022 -1e-06 -1e-06 0.0 -17.346418 -20.095221 -4.20178 21.757566 -1.638377 3.866429 1e-06 -6.338824 3e-06 -1.69759 -22.591749 -6.194005 1e-06 -5e-06 -4e-06 56.814106 -80.418213 134.492676 -1.314764 -23.651192 -2.82852 86.342361 -0.096291 -0.000646 14.96455 49.607933 -3.835954 22.182112 -20.375895 49.933323 -16.70182 -16.743532 28.476534 -3e-06 -12.690605 -0.0 17.219156 -17.708319 2.036405 -0.105917 -1.513854 -4.275882 -5.039043 -5.612876 -2.953556 4e-06 -11.020525 -3e-06 -6.1113 -15.895334 -3.84047 0.0 -0.0 1e-06 -10.283371 -5.680286 -4.341839 11.028297 -11.302408 -2.372635 -1.384268 -14.238585 -6.320123 -0.625436 -26.924198 -3.827605 -4.334732 -51.07629 -3.836089 -13.708526 -7.363475 -3.72094 18.141155 -14.052744 -3.242676 8e-06 -18.787271 -1e-06 -0.429711 -8.456046 2.555502 -0.0 -0.0 1e-06 -15.923534 -20.094486 -5.473583 30.419222 -7.190828 1.735924 4e-06 -8.162927 -2e-06 -1.861898 -22.861471 -6.167944 1e-06 -3e-06 -2e-06 170.949829 -13.099223 3.696323 72.803101 -0.590942 0.525708 -64.278061 -6.528851 -6.840978 -13.033828 1.794006 2.434544 -0.999999 1e-06 1e-06 -11.515396 3.9957 -18.264139 29.717184 0.141836 -0.301816 -85.309639 -13.424 -0.291323 -6.714279 0.699936 1.635891 -1.000001 1e-06 -0.0 
0.0 0.0 0.0 0.0 -0.0 0.0 -61.738129 97.198418 265.520752 86.196068 2.946555 100.177071 1.017083 1.630682 0.62702 -10.176408 -0.333734 0.133567 11.530154 2.330534 -1.616979 7.987864 2.489454 2.185925 -2.26609 -0.788053 -2.846162 -47.451111 -4.744354 -0.52183 8e-06 -0.0 -0.0 0.155405 0.012849 -0.003881 0.43967 -0.157445 -0.002546 0.465166 0.181312 -0.007285 -98.531281 -73.716217 109.204269 -6.833939 -32.420033 7.174238 75.687546 -0.304703 -1.456485 6.592133 11.6683 -7.383552 17.636631 -26.322725 52.411186 -19.466661 -14.395597 29.410389 0.0 -8.774821 -2e-06 15.001256 -17.864138 6.606115 -0.609779 -1.795653 -3.889328 -4.80709 -11.046812 -2.937851 5e-06 -20.976015 -0.0 -5.019969 -25.033556 -4.031881 5e-06 -1e-06 -1e-06 -10.634536 -5.686973 -3.565589 10.573271 -17.922947 -3.113898 3e-06 -13.821209 2e-06 -0.501781 -31.181498 -4.027012 -11.654306 -58.683628 7.554172 -13.982716 -7.150199 -2.875042 13.772733 -8.401495 -3.218242 0.347729 -34.211555 0.771656 -0.963031 -17.733372 2.62102 0.0 2e-06 -1e-06 -17.346422 -20.095217 -4.201783 21.757563 -1.638374 3.866428 0.0 -6.338824 1e-06 -1.69759 -22.591743 -6.194007 0.0 -3e-06 -2e-06 54.780109 -79.611588 136.908234 -2.089301 -23.789179 -0.389538 91.421585 0.169063 -0.001902 18.930248 49.212833 1.768734 22.182119 -20.375898 49.933327 -16.701815 -16.74353 28.476536 -3e-06 -12.690603 -1e-06 17.195492 -17.61656 2.008647 -0.105919 -1.513856 -4.275885 -5.039042 -5.612875 -2.953556 4e-06 -11.020528 -2e-06 -6.1113 -15.895338 -3.840472 0.0 0.0 -0.0 -10.283373 -5.680288 -4.34184 11.028297 -11.302409 -2.372633 -1.38427 -14.238585 -6.32012 -0.62544 -26.924198 -3.827599 -4.296557 -50.796257 -3.905763 -13.708529 -7.36348 -3.720942 18.141153 -14.05274 -3.242677 4e-06 -18.787271 -1e-06 -0.429711 -8.456047 2.555504 -0.0 0.0 -2e-06 -15.923541 -20.094492 -5.473588 30.419218 -7.190827 1.735928 2e-06 -8.162929 -2e-06 -1.8619 -22.861479 -6.167946 3e-06 -3e-06 -1e-06 167.238327 -12.320584 2.824204 76.980339 -0.385733 0.420426 -67.672295 -6.835559 -7.302585 -12.665274 1.793719 2.441791 -0.999999 -0.0 0.0 -10.393113 5.267986 -17.991663 29.320766 0.141797 -0.340818 -86.270416 -13.191405 0.351592 -6.578414 0.703279 1.62894 -1.000002 -1e-06 -0.0 
